<svg xmlns="http://www.w3.org/2000/svg" viewBox="0 0 512 512" role="img" aria-labelledby="title desc">
  <title id="title">Hotel Rate Monitoring API logo</title>
  <desc id="desc">A rounded blue square containing a hotel icon, a line chart, and the initials HRM.</desc>
  <defs>
    <linearGradient id="bg" x1="0" y1="0" x2="1" y2="1">
      <stop offset="0%" stop-color="#0f172a" />
      <stop offset="100%" stop-color="#1d4ed8" />
    </linearGradient>
    <linearGradient id="chart" x1="0" y1="0" x2="1" y2="1">
      <stop offset="0%" stop-color="#67e8f9" />
      <stop offset="100%" stop-color="#f8fafc" />
    </linearGradient>
  </defs>
  <rect x="24" y="24" width="464" height="464" rx="96" fill="url(#bg)"/>
  <rect x="126" y="116" width="128" height="214" rx="16" fill="#eff6ff" opacity="0.98"/>
  <rect x="154" y="146" width="22" height="22" rx="4" fill="#1d4ed8"/>
  <rect x="184" y="146" width="22" height="22" rx="4" fill="#1d4ed8"/>
  <rect x="154" y="178" width="22" height="22" rx="4" fill="#1d4ed8"/>
  <rect x="184" y="178" width="22" height="22" rx="4" fill="#1d4ed8"/>
  <rect x="154" y="210" width="22" height="22" rx="4" fill="#1d4ed8"/>
  <rect x="184" y="210" width="22" height="22" rx="4" fill="#1d4ed8"/>
  <rect x="167" y="260" width="46" height="70" rx="8" fill="#1d4ed8"/>
  <path d="M302 314 L348 266 L389 286 L430 211" fill="none" stroke="url(#chart)" stroke-width="18" stroke-linecap="round" stroke-linejoin="round"/>
  <circle cx="302" cy="314" r="12" fill="#67e8f9"/>
  <circle cx="348" cy="266" r="12" fill="#67e8f9"/>
  <circle cx="389" cy="286" r="12" fill="#67e8f9"/>
  <circle cx="430" cy="211" r="12" fill="#67e8f9"/>
  <text x="256" y="408" text-anchor="middle" font-family="Inter, Arial, sans-serif" font-size="64" font-weight="700" fill="#f8fafc" letter-spacing="6">HRM</text>
</svg>
